<svg version="1.1" id="Layer_1" xmlns="http://www.w3.org/2000/svg" xmlns:xlink="http://www.w3.org/1999/xlink" x="0px" y="0px"
	 width="100%" viewBox="0 0 324 324" enable-background="new 0 0 324 324" xml:space="preserve">
<path fill="#8C53FE" opacity="1.000000" stroke="none" 
	d="
M325.000000,2.000000 
	C325.000000,109.594025 325.000000,217.188049 325.000000,325.000000 
	C217.645340,325.000000 110.290520,325.000000 2.484602,324.531586 
	C2.037848,221.591888 2.041923,119.120598 2.047672,16.649313 
	C2.047878,12.983718 1.807224,9.289693 2.207344,5.667296 
	C2.355843,4.322885 4.025022,3.146442 5.467029,1.943736 
	C112.288895,1.996048 218.644440,1.998024 325.000000,2.000000 
M108.071404,146.076736 
	C108.071404,146.076736 107.857880,145.877884 107.847435,145.150192 
	C110.218262,140.011536 112.646820,134.898590 114.948509,129.729156 
	C120.631966,116.964516 130.012466,110.690872 144.386429,111.043983 
	C165.029709,111.551109 185.695007,111.235542 206.350449,111.154922 
	C227.248520,111.073364 244.764084,91.855453 243.412292,69.933060 
	C239.692047,69.933060 235.912750,69.933182 232.133469,69.933044 
	C197.818237,69.931801 163.502808,70.002525 129.187836,69.905815 
	C103.033813,69.832108 89.531662,89.062927 89.641273,107.220383 
	C89.922806,153.857681 89.489655,200.499725 89.222267,247.139206 
	C89.195076,251.881241 91.701492,251.853958 95.008537,251.118835 
	C112.625282,247.202820 125.124817,231.972061 125.518433,213.821518 
	C125.670097,206.828079 125.464355,199.826401 125.643898,192.834183 
	C125.939888,181.306427 131.568161,175.710556 143.055679,175.587143 
	C154.215012,175.467224 165.377243,175.641800 176.537445,175.570374 
	C199.742172,175.421875 216.257355,159.325455 217.380630,135.412537 
	C215.960678,135.303452 214.524872,135.094467 213.089523,135.097656 
	C190.934845,135.146820 168.780258,135.242310 146.625580,135.285370 
	C136.817078,135.304428 127.450729,137.142883 118.626961,141.568817 
	C115.244125,143.265625 111.736435,144.713516 108.071404,146.076736 
z"/>
<path fill="#5222A9" opacity="1.000000" stroke="none" 
	d="
M5.000718,1.893400 
	C4.025022,3.146442 2.355843,4.322885 2.207344,5.667296 
	C1.807224,9.289693 2.047878,12.983718 2.047672,16.649313 
	C2.041923,119.120598 2.037848,221.591888 2.016748,324.531586 
	C1.666667,323.502777 1.042505,322.005737 1.041646,320.508331 
	C0.994683,238.633163 1.000000,156.757950 1.000000,74.882751 
	C1.000000,50.255169 1.000000,25.627584 1.002313,1.000000 
	C2.003084,1.000000 3.001542,1.000000 4.499988,1.223350 
	C4.999974,1.446700 5.000718,1.893400 5.000718,1.893400 
z"/>
<path fill="#5223AD" opacity="1.000000" stroke="none" 
	d="
M5.467029,1.943736 
	C5.000718,1.893400 4.999974,1.446700 4.999987,1.223350 
	C111.666664,1.000000 218.333328,1.000000 325.000000,1.500000 
	C218.644440,1.998024 112.288895,1.996048 5.467029,1.943736 
z"/>
<path fill="#FCFBFE" opacity="1.000000" stroke="none" 
	d="
M108.285637,146.274826 
	C111.736435,144.713516 115.244125,143.265625 118.626961,141.568817 
	C127.450729,137.142883 136.817078,135.304428 146.625580,135.285370 
	C168.780258,135.242310 190.934845,135.146820 213.089523,135.097656 
	C214.524872,135.094467 215.960678,135.303452 217.380630,135.412537 
	C216.257355,159.325455 199.742172,175.421875 176.537445,175.570374 
	C165.377243,175.641800 154.215012,175.467224 143.055679,175.587143 
	C131.568161,175.710556 125.939888,181.306427 125.643898,192.834183 
	C125.464355,199.826401 125.670097,206.828079 125.518433,213.821518 
	C125.124817,231.972061 112.625282,247.202820 95.008537,251.118835 
	C91.701492,251.853958 89.195076,251.881241 89.222267,247.139206 
	C89.489655,200.499725 89.922806,153.857681 89.641273,107.220383 
	C89.531662,89.062927 103.033813,69.832108 129.187836,69.905815 
	C163.502808,70.002525 197.818237,69.931801 232.133469,69.933044 
	C235.912750,69.933182 239.692047,69.933060 243.412292,69.933060 
	C244.764084,91.855453 227.248520,111.073364 206.350449,111.154922 
	C185.695007,111.235542 165.029709,111.551109 144.386429,111.043983 
	C130.012466,110.690872 120.631966,116.964516 114.948509,129.729156 
	C112.646820,134.898590 110.218262,140.011536 107.690994,145.596375 
	C107.784920,146.119965 108.035278,146.197403 108.285637,146.274826 
z"/>
<path fill="#8C53FE" opacity="1.000000" stroke="none" 
	d="
M108.178520,146.175781 
	C108.035278,146.197403 107.784920,146.119965 107.696220,145.960205 
	C107.857880,145.877884 108.071404,146.076736 108.178520,146.175781 
z"/>
</svg>